# Blender v2.79 (sub 0) OBJ File: ''
# www.blender.org
o Cylinder
v 0.012375 0.266024 1.792322
v 0.012375 0.263346 -1.792019
v 0.051989 0.269926 1.792319
v 0.051989 0.267248 -1.792022
v 0.090081 0.281481 1.792311
v 0.090081 0.278803 -1.792030
v 0.125187 0.300246 1.792297
v 0.125187 0.297568 -1.792044
v 0.155958 0.325499 1.792278
v 0.155958 0.322821 -1.792063
v 0.181210 0.356271 1.792255
v 0.181210 0.353592 -1.792086
v 0.199975 0.391377 1.792228
v 0.199975 0.388699 -1.792112
v 0.211530 0.429470 1.792200
v 0.211530 0.426792 -1.792141
v 0.215431 0.469085 1.792170
v 0.215431 0.466407 -1.792170
v 0.211530 0.508700 1.792141
v 0.211530 0.506022 -1.792200
v 0.199975 0.546793 1.792112
v 0.199975 0.544115 -1.792228
v 0.181210 0.581900 1.792086
v 0.181210 0.579221 -1.792255
v 0.155958 0.612671 1.792063
v 0.155958 0.609993 -1.792278
v 0.125187 0.637924 1.792044
v 0.125187 0.635246 -1.792297
v 0.090081 0.656689 1.792030
v 0.090081 0.654011 -1.792311
v 0.051989 0.668244 1.792022
v 0.051989 0.665566 -1.792319
v 0.012375 0.672146 1.792019
v 0.012375 0.669468 -1.792322
v -0.027240 0.668244 1.792022
v -0.027240 0.665566 -1.792319
v -0.065332 0.656689 1.792030
v -0.065332 0.654011 -1.792311
v -0.100437 0.637924 1.792044
v -0.100437 0.635246 -1.792297
v -0.131208 0.612671 1.792063
v -0.131208 0.609993 -1.792278
v -0.156461 0.581900 1.792086
v -0.156461 0.579221 -1.792255
v -0.175225 0.546793 1.792112
v -0.175225 0.544115 -1.792228
v -0.186780 0.508700 1.792141
v -0.186780 0.506022 -1.792200
v -0.190682 0.469085 1.792170
v -0.190682 0.466407 -1.792170
v -0.186780 0.429470 1.792200
v -0.186780 0.426791 -1.792141
v -0.175225 0.391377 1.792228
v -0.175225 0.388699 -1.792112
v -0.156460 0.356270 1.792255
v -0.156460 0.353592 -1.792086
v -0.131208 0.325499 1.792278
v -0.131208 0.322821 -1.792063
v -0.100437 0.300246 1.792297
v -0.100437 0.297568 -1.792044
v -0.065331 0.281481 1.792311
v -0.065331 0.278803 -1.792030
v -0.027239 0.269926 1.792319
v -0.027239 0.267248 -1.792022
vt 0.595482 0.334407
vt 0.554685 0.000000
vt 0.595482 0.000000
vt 0.554686 0.334407
vt 0.514673 0.000000
vt 0.514673 0.334407
vt 0.476982 0.000000
vt 0.476982 0.334407
vt 0.443061 0.000000
vt 0.443061 0.334407
vt 0.414213 0.000000
vt 0.264046 0.665593
vt 0.230125 1.000000
vt 0.230125 0.665593
vt 0.192434 0.665593
vt 0.152421 1.000000
vt 0.152421 0.665593
vt 0.111625 0.665593
vt 0.111625 1.000000
vt 0.071612 0.665593
vt 0.071612 1.000000
vt 0.033921 0.665593
vt 0.033921 1.000000
vt 0.000000 0.665593
vt 0.414213 0.668814
vt 0.448134 0.334407
vt 0.448134 0.668814
vt 0.485826 0.668814
vt 0.485825 0.334407
vt 0.525838 0.668814
vt 0.525838 0.334407
vt 0.566635 0.668814
vt 0.566635 0.334407
vt 0.606647 0.668814
vt 0.606647 0.334407
vt 0.644338 0.668814
vt 0.644338 0.334407
vt 0.678259 0.668814
vt 0.707107 0.334407
vt 0.707107 0.668814
vt 0.741028 0.668814
vt 0.741028 0.334407
vt 0.778719 0.668814
vt 0.778719 0.334407
vt 0.818731 0.668814
vt 0.818731 0.334407
vt 0.859528 0.668814
vt 0.859528 0.334407
vt 0.899540 0.668814
vt 0.899540 0.334407
vt 0.937231 0.668814
vt 0.937231 0.334407
vt 0.971153 0.668814
vt 0.971152 0.334407
vt 1.000000 0.668814
vt 0.735954 0.334407
vt 0.707106 0.000000
vt 0.735954 0.000000
vt 0.707106 0.334407
vt 0.673185 0.000000
vt 0.186708 0.332797
vt 0.414213 0.482806
vt 0.000000 0.515584
vt 0.673185 0.334407
vt 0.635494 0.000000
vt 0.635494 0.334407
vt 0.406254 0.117862
vt 0.267517 0.326402
vt 0.146696 0.006395
vt 0.414213 0.334407
vt 0.264046 1.000000
vt 0.192434 1.000000
vt 0.000000 1.000000
vt 0.414213 0.334407
vt 0.678259 0.334407
vt 1.000000 0.334407
vt 0.227505 0.665593
vt 0.186708 0.665593
vt 0.146696 0.659199
vt 0.109005 0.646655
vt 0.075084 0.628445
vt 0.046237 0.605268
vt 0.023571 0.578014
vt 0.007959 0.547732
vt 0.000000 0.482806
vt 0.007959 0.450658
vt 0.023571 0.420376
vt 0.046236 0.393122
vt 0.075084 0.369945
vt 0.109005 0.351735
vt 0.146696 0.339191
vt 0.227505 0.332797
vt 0.267517 0.339191
vt 0.305209 0.351735
vt 0.339130 0.369945
vt 0.367977 0.393122
vt 0.390642 0.420376
vt 0.406254 0.450658
vt 0.414213 0.515584
vt 0.406254 0.547731
vt 0.390642 0.578014
vt 0.367977 0.605268
vt 0.339130 0.628445
vt 0.305209 0.646655
vt 0.267518 0.659199
vt 0.007959 0.214935
vt 0.000000 0.182787
vt 0.000000 0.150010
vt 0.007959 0.117862
vt 0.023571 0.087579
vt 0.046236 0.060326
vt 0.075084 0.037148
vt 0.109005 0.018938
vt 0.186708 0.000000
vt 0.227505 0.000000
vt 0.267517 0.006395
vt 0.305208 0.018938
vt 0.339129 0.037148
vt 0.367977 0.060326
vt 0.390642 0.087579
vt 0.414213 0.150009
vt 0.414213 0.182787
vt 0.406254 0.214935
vt 0.390642 0.245217
vt 0.367977 0.272471
vt 0.339129 0.295648
vt 0.305208 0.313859
vt 0.227505 0.332797
vt 0.186708 0.332797
vt 0.146696 0.326402
vt 0.109005 0.313858
vt 0.075084 0.295648
vt 0.046236 0.272471
vt 0.023571 0.245217
vn 0.0980 -0.9952 0.0007
vn 0.2903 -0.9569 0.0007
vn 0.4714 -0.8819 0.0007
vn 0.6344 -0.7730 0.0006
vn 0.7730 -0.6344 0.0005
vn 0.8819 -0.4714 0.0004
vn 0.9569 -0.2903 0.0002
vn 0.9952 -0.0980 0.0001
vn 0.9952 0.0980 -0.0001
vn 0.9569 0.2903 -0.0002
vn 0.8819 0.4714 -0.0004
vn 0.7730 0.6344 -0.0005
vn 0.6344 0.7730 -0.0006
vn 0.4714 0.8819 -0.0007
vn 0.2903 0.9569 -0.0007
vn 0.0980 0.9952 -0.0007
vn -0.0980 0.9952 -0.0007
vn -0.2903 0.9569 -0.0007
vn -0.4714 0.8819 -0.0007
vn -0.6344 0.7730 -0.0006
vn -0.7730 0.6344 -0.0005
vn -0.8819 0.4714 -0.0004
vn -0.9569 0.2903 -0.0002
vn -0.9952 0.0980 -0.0001
vn -0.9952 -0.0980 0.0001
vn -0.9569 -0.2903 0.0002
vn -0.8819 -0.4714 0.0004
vn -0.7730 -0.6344 0.0005
vn -0.6344 -0.7730 0.0006
vn -0.4714 -0.8819 0.0007
vn 0.0000 -0.0007 -1.0000
vn -0.2903 -0.9569 0.0007
vn -0.0980 -0.9952 0.0007
vn 0.0000 0.0007 1.0000
vn 0.0000 -0.0008 -1.0000
vn -0.0000 0.0008 1.0000
vn 0.0001 0.0007 1.0000
s off
f 2/1/1 3/2/1 1/3/1
f 4/4/2 5/5/2 3/2/2
f 6/6/3 7/7/3 5/5/3
f 8/8/4 9/9/4 7/7/4
f 10/10/5 11/11/5 9/9/5
f 11/12/6 14/13/6 13/14/6
f 14/13/7 15/15/7 13/14/7
f 15/15/8 18/16/8 17/17/8
f 18/16/9 19/18/9 17/17/9
f 20/19/10 21/20/10 19/18/10
f 22/21/11 23/22/11 21/20/11
f 24/23/12 25/24/12 23/22/12
f 25/25/13 28/26/13 27/27/13
f 28/26/14 29/28/14 27/27/14
f 30/29/15 31/30/15 29/28/15
f 32/31/16 33/32/16 31/30/16
f 34/33/17 35/34/17 33/32/17
f 36/35/18 37/36/18 35/34/18
f 38/37/19 39/38/19 37/36/19
f 39/38/20 42/39/20 41/40/20
f 42/39/21 43/41/21 41/40/21
f 44/42/22 45/43/22 43/41/22
f 46/44/23 47/45/23 45/43/23
f 48/46/24 49/47/24 47/45/24
f 50/48/25 51/49/25 49/47/25
f 52/50/26 53/51/26 51/49/26
f 54/52/27 55/53/27 53/51/27
f 56/54/28 57/55/28 55/53/28
f 58/56/29 59/57/29 57/58/29
f 60/59/30 61/60/30 59/57/30
f 38/61/31 22/62/31 54/63/31
f 62/64/32 63/65/32 61/60/32
f 64/66/33 1/3/33 63/65/33
f 31/67/34 47/68/34 15/69/34
f 2/1/1 4/4/1 3/2/1
f 4/4/2 6/6/2 5/5/2
f 6/6/3 8/8/3 7/7/3
f 8/8/4 10/10/4 9/9/4
f 10/10/5 12/70/5 11/11/5
f 11/12/6 12/71/6 14/13/6
f 14/13/7 16/72/7 15/15/7
f 15/15/8 16/72/8 18/16/8
f 18/16/9 20/19/9 19/18/9
f 20/19/10 22/21/10 21/20/10
f 22/21/11 24/23/11 23/22/11
f 24/23/12 26/73/12 25/24/12
f 25/25/13 26/74/13 28/26/13
f 28/26/14 30/29/14 29/28/14
f 30/29/15 32/31/15 31/30/15
f 32/31/16 34/33/16 33/32/16
f 34/33/17 36/35/17 35/34/17
f 36/35/18 38/37/18 37/36/18
f 38/37/19 40/75/19 39/38/19
f 39/38/20 40/75/20 42/39/20
f 42/39/21 44/42/21 43/41/21
f 44/42/22 46/44/22 45/43/22
f 46/44/23 48/46/23 47/45/23
f 48/46/24 50/48/24 49/47/24
f 50/48/25 52/50/25 51/49/25
f 52/50/26 54/52/26 53/51/26
f 54/52/27 56/54/27 55/53/27
f 56/54/28 58/76/28 57/55/28
f 58/56/29 60/59/29 59/57/29
f 60/59/30 62/64/30 61/60/30
f 6/77/31 4/78/31 2/79/31
f 2/79/35 64/80/35 6/77/35
f 62/81/31 60/82/31 58/83/31
f 58/83/31 56/84/31 54/63/31
f 54/63/31 52/85/31 50/86/31
f 50/86/31 48/87/31 46/88/31
f 46/88/31 44/89/31 38/61/31
f 42/90/31 40/91/31 38/61/31
f 38/61/31 36/92/31 34/93/31
f 34/93/35 32/94/35 38/61/35
f 30/95/31 28/96/31 26/97/31
f 26/97/31 24/98/31 22/62/31
f 22/62/31 20/99/31 18/100/31
f 18/100/31 16/101/31 14/102/31
f 14/102/31 12/103/31 6/77/31
f 10/104/31 8/105/31 6/77/31
f 6/77/31 64/80/31 62/81/31
f 62/81/31 58/83/31 6/77/31
f 54/63/31 50/86/31 38/61/31
f 44/89/31 42/90/31 38/61/31
f 38/61/31 32/94/31 30/95/31
f 30/95/31 26/97/31 38/61/31
f 22/62/31 18/100/31 6/77/31
f 12/103/31 10/104/31 6/77/31
f 6/77/31 58/83/31 54/63/31
f 50/86/31 46/88/31 38/61/31
f 38/61/31 26/97/31 22/62/31
f 18/100/31 14/102/31 6/77/31
f 6/77/31 54/63/31 22/62/31
f 62/64/32 64/66/32 63/65/32
f 64/66/33 2/1/33 1/3/33
f 63/106/36 1/107/36 3/108/36
f 3/108/36 5/109/36 7/110/36
f 7/110/36 9/111/36 11/112/36
f 11/112/34 13/113/34 15/69/34
f 15/69/34 17/114/34 19/115/34
f 19/115/37 21/116/37 23/117/37
f 23/117/34 25/118/34 31/67/34
f 27/119/36 29/120/36 31/67/36
f 31/67/36 33/121/36 35/122/36
f 35/122/34 37/123/34 31/67/34
f 39/124/36 41/125/36 43/126/36
f 43/126/34 45/127/34 47/68/34
f 47/68/34 49/128/34 51/129/34
f 51/129/34 53/130/34 55/131/34
f 55/131/34 57/132/34 63/106/34
f 59/133/36 61/134/36 63/106/36
f 63/106/34 3/108/34 7/110/34
f 7/110/34 11/112/34 63/106/34
f 15/69/34 19/115/34 31/67/34
f 25/118/34 27/119/34 31/67/34
f 31/67/36 37/123/36 39/124/36
f 39/124/34 43/126/34 31/67/34
f 47/68/34 51/129/34 63/106/34
f 57/132/34 59/133/34 63/106/34
f 63/106/34 11/112/34 15/69/34
f 19/115/34 23/117/34 31/67/34
f 31/67/34 43/126/34 47/68/34
f 51/129/34 55/131/34 63/106/34
f 63/106/34 15/69/34 47/68/34
