# Blender v2.79 (sub 0) OBJ File: 'TRUBBLESternDriveFinblend.blend'
# www.blender.org
o Cube.004
v -0.368858 0.622165 -1.917521
v -0.368858 0.910516 -1.654473
v -0.368858 0.622165 -2.525033
v -0.368858 0.718913 -2.525033
v 0.368867 0.622165 -1.917521
v 0.368867 0.910516 -1.654473
v 0.368867 0.622165 -2.525033
v 0.368867 0.718913 -2.525033
v -0.404809 0.579471 -1.373726
v -0.404809 1.320186 -1.373726
v -0.404809 0.605582 -2.064017
v -0.404809 0.693073 -2.064017
v 0.404819 0.579471 -1.373726
v 0.404819 1.320186 -1.373726
v 0.404819 0.605582 -2.064017
v 0.404819 0.693073 -2.064017
v -1.209857 0.566274 1.604238
v -1.209857 1.124839 1.604238
v -0.427508 0.566274 -1.597835
v -0.427508 1.124839 -1.597835
v 1.209756 0.566274 1.604238
v 1.209756 1.124839 1.604238
v 0.427518 0.566274 -1.597835
v 0.427518 1.124839 -1.597835
v -0.368858 0.622165 -2.525033
v -0.368858 0.622165 -2.525033
v -0.368858 0.622165 -1.917521
v -0.368858 0.622165 -1.917521
v -0.368858 0.910516 -1.654473
v -0.368858 0.910516 -1.654473
v -0.368858 0.718913 -2.525033
v -0.368858 0.718913 -2.525033
v 0.368867 0.622165 -2.525033
v 0.368867 0.622165 -2.525033
v 0.368867 0.718913 -2.525033
v 0.368867 0.718913 -2.525033
v 0.368867 0.622165 -1.917521
v 0.368867 0.622165 -1.917521
v 0.368867 0.910516 -1.654473
v 0.368867 0.910516 -1.654473
v -0.404809 0.605582 -2.064017
v -0.404809 0.605582 -2.064017
v -0.404809 0.579471 -1.373726
v -0.404809 0.579471 -1.373726
v -0.404809 1.320186 -1.373726
v -0.404809 1.320186 -1.373726
v -0.404809 0.693073 -2.064017
v -0.404809 0.693073 -2.064017
v 0.404819 0.605582 -2.064017
v 0.404819 0.605582 -2.064017
v 0.404819 0.693073 -2.064017
v 0.404819 0.693073 -2.064017
v 0.404819 0.579471 -1.373726
v 0.404819 0.579471 -1.373726
v 0.404819 1.320186 -1.373726
v 0.404819 1.320186 -1.373726
v -0.427508 0.566274 -1.597835
v -0.427508 0.566274 -1.597835
v -1.209857 0.566274 1.604238
v -1.209857 0.566274 1.604238
v -1.209857 1.124839 1.604238
v -1.209857 1.124839 1.604238
v -0.427508 1.124839 -1.597835
v -0.427508 1.124839 -1.597835
v 0.427518 0.566274 -1.597835
v 0.427518 0.566274 -1.597835
v 0.427518 1.124839 -1.597835
v 0.427518 1.124839 -1.597835
v 1.209756 0.566274 1.604238
v 1.209756 0.566274 1.604238
v 1.209756 1.124839 1.604238
v 1.209756 1.124839 1.604238
v -2.484553 0.835897 0.988224
v -2.484553 0.835898 -2.682237
v -2.365127 0.567089 0.458012
v -2.365127 0.567089 -2.325544
v -2.015438 0.835897 0.988224
v -2.015438 0.835898 -2.682237
v -2.134864 0.567089 0.458012
v -2.134864 0.567089 -2.325544
v 2.015447 0.835897 0.988224
v 2.015447 0.835898 -2.682237
v 2.134873 0.567089 0.458012
v 2.134873 0.567089 -2.325544
v 2.484562 0.835897 0.988224
v 2.484562 0.835898 -2.682237
v 2.365135 0.567089 0.458012
v 2.365135 0.567089 -2.325544
v -2.366443 0.728926 -1.107825
v -2.366443 0.589363 -1.107825
v -2.366443 0.728926 -0.675283
v -2.366443 0.589363 -0.675283
v 2.366452 0.728926 -1.107825
v 2.366452 0.589363 -1.107825
v 2.366452 0.728926 -0.675283
v 2.366452 0.589363 -0.675283
v -2.365127 0.567089 0.458012
v -2.365127 0.567089 0.458012
v -2.484553 0.835897 0.988224
v -2.484553 0.835897 0.988224
v -2.484553 0.835898 -2.682237
v -2.484553 0.835898 -2.682237
v -2.365127 0.567089 -2.325544
v -2.365127 0.567089 -2.325544
v -2.134864 0.567089 0.458012
v -2.134864 0.567089 0.458012
v -2.134864 0.567089 -2.325544
v -2.134864 0.567089 -2.325544
v -2.015438 0.835897 0.988224
v -2.015438 0.835897 0.988224
v -2.015438 0.835898 -2.682237
v -2.015438 0.835898 -2.682237
v 2.134873 0.567089 0.458012
v 2.134873 0.567089 0.458012
v 2.015447 0.835897 0.988224
v 2.015447 0.835897 0.988224
v 2.015447 0.835898 -2.682237
v 2.015447 0.835898 -2.682237
v 2.134873 0.567089 -2.325544
v 2.134873 0.567089 -2.325544
v 2.365135 0.567089 0.458012
v 2.365135 0.567089 0.458012
v 2.365135 0.567089 -2.325544
v 2.365135 0.567089 -2.325544
v 2.484562 0.835897 0.988224
v 2.484562 0.835897 0.988224
v 2.484562 0.835898 -2.682237
v 2.484562 0.835898 -2.682237
v -2.366443 0.728926 -0.675283
v -2.366443 0.728926 -0.675283
v -2.366443 0.728926 -1.107825
v -2.366443 0.728926 -1.107825
v -2.366443 0.589363 -1.107825
v -2.366443 0.589363 -1.107825
v -2.366443 0.589363 -0.675283
v -2.366443 0.589363 -0.675283
v 2.366452 0.728926 -0.675283
v 2.366452 0.728926 -0.675283
v 2.366452 0.589363 -0.675283
v 2.366452 0.589363 -0.675283
v 2.366452 0.728926 -1.107825
v 2.366452 0.728926 -1.107825
v 2.366452 0.589363 -1.107825
v 2.366452 0.589363 -1.107825
vt 0.238953 0.716975
vt 0.270788 0.797212
vt 0.257423 0.800038
vt 0.153214 0.683757
vt 0.139450 0.768835
vt 0.139450 0.683757
vt 0.798937 0.669213
vt 0.767102 0.749450
vt 0.785572 0.666387
vt 0.619448 0.674446
vt 0.577718 0.759524
vt 0.577718 0.674446
vt 0.676887 0.666387
vt 0.762781 0.751464
vt 0.676887 0.751464
vt 0.088929 0.576644
vt 0.175354 0.452055
vt 0.175354 0.576644
vt 0.277820 0.565306
vt 0.179675 0.581486
vt 0.179675 0.569316
vt 0.788502 0.566461
vt 0.776056 0.659830
vt 0.776056 0.566461
vt 0.675863 0.475360
vt 0.577718 0.459180
vt 0.675863 0.463191
vt 0.577718 0.566461
vt 0.672566 0.670192
vt 0.577718 0.670192
vt 0.676887 0.662133
vt 0.771735 0.566461
vt 0.771735 0.662133
vt 0.179675 0.561052
vt 0.274523 0.452055
vt 0.274523 0.561052
vt 0.656624 0.002127
vt 0.577718 0.454926
vt 0.577718 0.003632
vt 0.088929 0.679503
vt 0.168390 0.580898
vt 0.168390 0.679503
vt 0.660945 0.453421
vt 0.739851 0.003632
vt 0.739851 0.454925
vt 0.428679 0.449502
vt 0.349217 0.728543
vt 0.349217 0.449502
vt 0.193966 0.447801
vt 0.002161 0.002127
vt 0.285618 0.002127
vt 0.381591 0.445248
vt 0.573397 0.002127
vt 0.481758 0.445248
vt 0.433000 0.449502
vt 0.472610 0.888716
vt 0.433000 0.963237
vt 0.084608 0.839478
vt 0.057633 0.452055
vt 0.084608 0.452055
vt 0.476931 0.888716
vt 0.516541 0.449502
vt 0.516541 0.963238
vt 0.929733 0.510067
vt 0.874776 0.002127
vt 0.929733 0.002127
vt 0.694175 0.537142
vt 0.735141 0.459180
vt 0.721150 0.537142
vt 0.088929 0.697530
vt 0.135129 0.737857
vt 0.088929 0.724084
vt 0.934054 0.002127
vt 0.973664 0.441341
vt 0.934054 0.515862
vt 0.053311 0.839478
vt 0.026336 0.452055
vt 0.053311 0.452055
vt 0.520863 0.888716
vt 0.560473 0.449502
vt 0.560473 0.963238
vt 0.344896 0.957442
vt 0.289939 0.449502
vt 0.344896 0.449502
vt 0.193666 0.750548
vt 0.234632 0.672586
vt 0.220641 0.750548
vt 0.623770 0.714774
vt 0.669970 0.674446
vt 0.669970 0.728547
vt 0.392977 0.732873
vt 0.373258 0.793337
vt 0.373258 0.732797
vt 0.002161 0.997873
vt 0.022015 0.452055
vt 0.022015 0.997873
vt 0.349217 0.793413
vt 0.368936 0.732797
vt 0.368936 0.793337
vt 0.997839 0.002127
vt 0.977985 0.547945
vt 0.977985 0.002127
vt 0.870454 0.547945
vt 0.809649 0.002127
vt 0.870454 0.002127
vt 0.805328 0.547945
vt 0.744172 0.002127
vt 0.805328 0.002127
vt 0.270788 0.672586
vt 0.153214 0.768835
vt 0.798937 0.793839
vt 0.619448 0.759524
vt 0.762781 0.666387
vt 0.088929 0.452055
vt 0.277820 0.668332
vt 0.788502 0.659830
vt 0.577718 0.562207
vt 0.672566 0.566461
vt 0.676887 0.566461
vt 0.179675 0.452055
vt 0.656624 0.453421
vt 0.088929 0.580898
vt 0.660945 0.002127
vt 0.428679 0.728543
vt 0.093800 0.447801
vt 0.289939 0.002127
vt 0.472610 0.499116
vt 0.057633 0.839478
vt 0.476931 0.499116
vt 0.874776 0.510067
vt 0.680184 0.459180
vt 0.135129 0.683757
vt 0.973664 0.051741
vt 0.026336 0.839478
vt 0.520863 0.499116
vt 0.289939 0.957442
vt 0.179675 0.672586
vt 0.623770 0.688219
vt 0.392977 0.793413
vt 0.002161 0.452055
vt 0.349217 0.732873
vt 0.997839 0.547945
vt 0.809649 0.547945
vt 0.744173 0.547945
vn -1.0000 0.0000 0.0000
vn 0.0000 0.0000 -1.0000
vn 1.0000 0.0000 0.0000
vn 0.0000 -0.6739 0.7388
vn 0.0000 -1.0000 0.0000
vn 0.0000 0.9766 -0.2149
vn 0.0000 0.0000 1.0000
vn 0.0000 -0.9993 -0.0378
vn 0.0000 0.7402 -0.6724
vn -0.9714 0.0000 -0.2373
vn 0.9714 0.0000 -0.2373
vn 0.0000 1.0000 0.0000
vn -0.9139 -0.4060 -0.0000
vn 0.9139 -0.4060 -0.0000
vn 0.0000 -0.8919 0.4522
vn 0.0000 -0.7986 -0.6018
s off
f 27/1/1 31/2/1 25/3/1
f 32/4/2 33/5/2 26/6/2
f 36/7/3 37/8/3 34/9/3
f 40/10/4 28/11/4 38/12/4
f 7/13/5 1/14/5 3/15/5
f 4/16/6 6/17/6 8/18/6
f 43/19/1 47/20/1 41/21/1
f 48/22/2 49/23/2 42/24/2
f 52/25/3 53/26/3 50/27/3
f 56/28/7 44/29/7 54/30/7
f 15/31/8 9/32/8 11/33/8
f 12/34/9 14/35/9 16/36/9
f 61/37/10 57/38/10 59/39/10
f 64/40/2 65/41/2 58/42/2
f 68/43/11 69/44/11 66/45/11
f 72/46/7 60/47/7 70/48/7
f 19/49/5 21/50/5 17/51/5
f 20/52/12 22/53/12 24/54/12
f 101/55/13 97/56/13 99/57/13
f 104/58/5 105/59/5 98/60/5
f 106/61/14 111/62/14 109/63/14
f 112/64/12 100/65/12 110/66/12
f 79/67/15 73/68/15 75/69/15
f 76/70/16 78/71/16 80/72/16
f 117/73/13 113/74/13 115/75/13
f 120/76/5 121/77/5 114/78/5
f 122/79/14 127/80/14 125/81/14
f 128/82/12 116/83/12 126/84/12
f 87/85/15 81/86/15 83/87/15
f 88/88/16 82/89/16 86/90/16
f 133/91/1 129/92/1 131/93/1
f 136/94/7 137/95/7 130/96/7
f 140/97/3 141/98/3 138/99/3
f 144/100/2 132/101/2 142/102/2
f 95/103/12 89/104/12 91/105/12
f 92/106/5 94/107/5 96/108/5
f 27/1/1 29/109/1 31/2/1
f 32/4/2 35/110/2 33/5/2
f 36/7/3 39/111/3 37/8/3
f 40/10/4 30/112/4 28/11/4
f 7/13/5 5/113/5 1/14/5
f 4/16/6 2/114/6 6/17/6
f 43/19/1 45/115/1 47/20/1
f 48/22/2 51/116/2 49/23/2
f 52/25/3 55/117/3 53/26/3
f 56/28/7 46/118/7 44/29/7
f 15/31/8 13/119/8 9/32/8
f 12/34/9 10/120/9 14/35/9
f 61/37/10 63/121/10 57/38/10
f 64/40/2 67/122/2 65/41/2
f 68/43/11 71/123/11 69/44/11
f 72/46/7 62/124/7 60/47/7
f 19/49/5 23/125/5 21/50/5
f 20/52/12 18/126/12 22/53/12
f 101/55/13 103/127/13 97/56/13
f 104/58/5 107/128/5 105/59/5
f 106/61/14 108/129/14 111/62/14
f 112/64/12 102/130/12 100/65/12
f 79/67/15 77/131/15 73/68/15
f 76/70/16 74/132/16 78/71/16
f 117/73/13 119/133/13 113/74/13
f 120/76/5 123/134/5 121/77/5
f 122/79/14 124/135/14 127/80/14
f 128/82/12 118/136/12 116/83/12
f 87/85/15 85/137/15 81/86/15
f 88/88/16 84/138/16 82/89/16
f 133/91/1 135/139/1 129/92/1
f 136/94/7 139/140/7 137/95/7
f 140/97/3 143/141/3 141/98/3
f 144/100/2 134/142/2 132/101/2
f 95/103/12 93/143/12 89/104/12
f 92/106/5 90/144/5 94/107/5
