# Blender v2.79 (sub 0) OBJ File: 'TRUBBLESternDriveBetter.blend'
# www.blender.org
o Cube.000
v 2.484562 0.835897 -2.611511
v 2.484563 0.835898 1.058951
v 2.365136 0.567089 -2.081299
v 2.365136 0.567089 0.702258
v 2.015447 0.835897 -2.611511
v 2.015447 0.835898 1.058951
v 2.134873 0.567089 -2.081299
v 2.134874 0.567089 0.702258
v -2.015438 0.835897 -2.611510
v -2.015437 0.835898 1.058952
v -2.134864 0.567089 -2.081298
v -2.134864 0.567089 0.702258
v -2.484553 0.835897 -2.611510
v -2.484552 0.835898 1.058952
v -2.365126 0.567089 -2.081298
v -2.365126 0.567089 0.702258
v 2.366452 0.728926 -0.515461
v 2.366452 0.589363 -0.515461
v 2.366452 0.728926 -0.948003
v 2.366452 0.589363 -0.948003
v -2.366442 0.728926 -0.515460
v -2.366442 0.589363 -0.515460
v -2.366442 0.728926 -0.948003
v -2.366442 0.589363 -0.948003
v 2.365136 0.567089 -2.081299
v 2.365136 0.567089 -2.081299
v 2.484562 0.835897 -2.611511
v 2.484562 0.835897 -2.611511
v 2.484563 0.835898 1.058951
v 2.484563 0.835898 1.058951
v 2.365136 0.567089 0.702258
v 2.365136 0.567089 0.702258
v 2.134873 0.567089 -2.081299
v 2.134873 0.567089 -2.081299
v 2.134874 0.567089 0.702258
v 2.134874 0.567089 0.702258
v 2.015447 0.835897 -2.611511
v 2.015447 0.835897 -2.611511
v 2.015447 0.835898 1.058951
v 2.015447 0.835898 1.058951
v -2.134864 0.567089 -2.081298
v -2.134864 0.567089 -2.081298
v -2.015438 0.835897 -2.611510
v -2.015438 0.835897 -2.611510
v -2.015437 0.835898 1.058952
v -2.015437 0.835898 1.058952
v -2.134864 0.567089 0.702258
v -2.134864 0.567089 0.702258
v -2.365126 0.567089 -2.081298
v -2.365126 0.567089 -2.081298
v -2.365126 0.567089 0.702258
v -2.365126 0.567089 0.702258
v -2.484553 0.835897 -2.611510
v -2.484553 0.835897 -2.611510
v -2.484552 0.835898 1.058952
v -2.484552 0.835898 1.058952
v 2.366452 0.728926 -0.948003
v 2.366452 0.728926 -0.948003
v 2.366452 0.728926 -0.515461
v 2.366452 0.728926 -0.515461
v 2.366452 0.589363 -0.515461
v 2.366452 0.589363 -0.515461
v 2.366452 0.589363 -0.948003
v 2.366452 0.589363 -0.948003
v -2.366442 0.728926 -0.948003
v -2.366442 0.728926 -0.948003
v -2.366442 0.589363 -0.948003
v -2.366442 0.589363 -0.948003
v -2.366442 0.728926 -0.515460
v -2.366442 0.728926 -0.515460
v -2.366442 0.589363 -0.515460
v -2.366442 0.589363 -0.515460
v -0.368858 0.622165 -1.768612
v -0.368858 0.910517 -1.505564
v -0.368858 0.622165 -2.376124
v -0.368858 0.718914 -2.376124
v 0.368867 0.622165 -1.768612
v 0.368867 0.910517 -1.505564
v 0.368867 0.622165 -2.376124
v 0.368867 0.718914 -2.376124
v -0.404809 0.579472 -1.224817
v -0.404809 1.320186 -1.224817
v -0.404809 0.605583 -1.915108
v -0.404809 0.693073 -1.915108
v 0.404819 0.579472 -1.224817
v 0.404819 1.320186 -1.224817
v 0.404819 0.605583 -1.915108
v 0.404819 0.693073 -1.915108
v -1.209857 0.566274 1.753147
v -1.209857 1.124839 1.753147
v -0.427508 0.566274 -1.448926
v -0.427508 1.124839 -1.448926
v 1.209756 0.566274 1.753147
v 1.209756 1.124839 1.753147
v 0.427518 0.566274 -1.448926
v 0.427518 1.124839 -1.448926
v -0.368858 0.622165 -2.376124
v -0.368858 0.622165 -2.376124
v -0.368858 0.622165 -1.768612
v -0.368858 0.622165 -1.768612
v -0.368858 0.910517 -1.505564
v -0.368858 0.910517 -1.505564
v -0.368858 0.718914 -2.376124
v -0.368858 0.718914 -2.376124
v 0.368867 0.622165 -2.376124
v 0.368867 0.622165 -2.376124
v 0.368867 0.718914 -2.376124
v 0.368867 0.718914 -2.376124
v 0.368867 0.622165 -1.768612
v 0.368867 0.622165 -1.768612
v 0.368867 0.910517 -1.505564
v 0.368867 0.910517 -1.505564
v -0.404809 0.605583 -1.915108
v -0.404809 0.605583 -1.915108
v -0.404809 0.579472 -1.224817
v -0.404809 0.579472 -1.224817
v -0.404809 1.320186 -1.224817
v -0.404809 1.320186 -1.224817
v -0.404809 0.693073 -1.915108
v -0.404809 0.693073 -1.915108
v 0.404819 0.605583 -1.915108
v 0.404819 0.605583 -1.915108
v 0.404819 0.693073 -1.915108
v 0.404819 0.693073 -1.915108
v 0.404819 0.579472 -1.224817
v 0.404819 0.579472 -1.224817
v 0.404819 1.320186 -1.224817
v 0.404819 1.320186 -1.224817
v -0.427508 0.566274 -1.448926
v -0.427508 0.566274 -1.448926
v -1.209857 0.566274 1.753147
v -1.209857 0.566274 1.753147
v -1.209857 1.124839 1.753147
v -1.209857 1.124839 1.753147
v -0.427508 1.124839 -1.448926
v -0.427508 1.124839 -1.448926
v 0.427518 0.566274 -1.448926
v 0.427518 0.566274 -1.448926
v 0.427518 1.124839 -1.448926
v 0.427518 1.124839 -1.448926
v 1.209756 0.566274 1.753147
v 1.209756 0.566274 1.753147
v 1.209756 1.124839 1.753147
v 1.209756 1.124839 1.753147
vt 0.472325 0.963044
vt 0.432739 0.524234
vt 0.472325 0.450506
vt 0.026320 0.453332
vt 0.053279 0.839422
vt 0.026320 0.839422
vt 0.516230 0.524234
vt 0.476644 0.963044
vt 0.476644 0.450506
vt 0.874851 0.002122
vt 0.929775 0.514468
vt 0.874851 0.514468
vt 0.717420 0.458110
vt 0.676479 0.536166
vt 0.690461 0.458110
vt 0.134628 0.723103
vt 0.088875 0.682869
vt 0.134628 0.696610
vt 0.973680 0.514660
vt 0.934093 0.075850
vt 0.973680 0.002122
vt 0.057598 0.453332
vt 0.084557 0.839422
vt 0.057598 0.839422
vt 0.520549 0.889316
vt 0.560135 0.450506
vt 0.560135 0.963044
vt 0.344688 0.962853
vt 0.289765 0.450506
vt 0.344688 0.450506
vt 0.220508 0.667392
vt 0.179567 0.745448
vt 0.193549 0.667392
vt 0.668437 0.710458
vt 0.622684 0.670224
vt 0.668437 0.683965
vt 0.642392 0.788842
vt 0.622684 0.728518
vt 0.642392 0.728443
vt 0.977998 0.546668
vt 0.997841 0.002122
vt 0.997841 0.546668
vt 0.666417 0.728518
vt 0.646710 0.788842
vt 0.646710 0.728443
vt 0.022002 0.453332
vt 0.002159 0.997878
vt 0.002159 0.453332
vt 0.743724 0.546668
vt 0.805163 0.002122
vt 0.805163 0.546668
vt 0.870533 0.546668
vt 0.809482 0.002122
vt 0.870532 0.002122
vt 0.238809 0.711678
vt 0.270625 0.791728
vt 0.257268 0.794547
vt 0.138946 0.767749
vt 0.152701 0.682869
vt 0.152701 0.767749
vt 0.798361 0.669092
vt 0.766544 0.749142
vt 0.785004 0.666273
vt 0.577370 0.755104
vt 0.618366 0.670224
vt 0.618366 0.755104
vt 0.762226 0.751152
vt 0.676479 0.666273
vt 0.762225 0.666273
vt 0.175248 0.453332
vt 0.088876 0.576006
vt 0.088875 0.453332
vt 0.277652 0.560362
vt 0.179567 0.576504
vt 0.179567 0.564363
vt 0.775588 0.658996
vt 0.788027 0.565844
vt 0.788027 0.658996
vt 0.179567 0.539976
vt 0.277652 0.556118
vt 0.179567 0.552117
vt 0.672160 0.561600
vt 0.577370 0.458110
vt 0.672160 0.458110
vt 0.771270 0.662029
vt 0.676479 0.565844
vt 0.771270 0.565844
vt 0.672160 0.565844
vt 0.577370 0.665980
vt 0.577370 0.565844
vt 0.577370 0.453866
vt 0.656228 0.002122
vt 0.656228 0.452365
vt 0.088876 0.678625
vt 0.168289 0.580249
vt 0.168289 0.678625
vt 0.660547 0.452364
vt 0.739405 0.003623
vt 0.739406 0.453865
vt 0.428420 0.450506
vt 0.349007 0.728896
vt 0.349007 0.450506
vt 0.481454 0.446262
vt 0.289765 0.002122
vt 0.573051 0.002122
vt 0.193849 0.002122
vt 0.002159 0.449088
vt 0.093743 0.002122
vt 0.432739 0.912926
vt 0.053279 0.453332
vt 0.516230 0.912926
vt 0.929775 0.002122
vt 0.731403 0.536166
vt 0.088875 0.736843
vt 0.934094 0.464542
vt 0.084557 0.453332
vt 0.520549 0.500624
vt 0.289765 0.962853
vt 0.234490 0.745448
vt 0.622684 0.724199
vt 0.622684 0.788918
vt 0.977998 0.002122
vt 0.666417 0.788918
vt 0.022002 0.997878
vt 0.743724 0.002122
vt 0.809482 0.546668
vt 0.270625 0.667392
vt 0.138946 0.682869
vt 0.798361 0.793428
vt 0.577370 0.670224
vt 0.676479 0.751152
vt 0.175248 0.576006
vt 0.277652 0.663148
vt 0.775588 0.565844
vt 0.277652 0.453332
vt 0.577370 0.561600
vt 0.676479 0.662029
vt 0.672160 0.665980
vt 0.577370 0.003623
vt 0.088875 0.580249
vt 0.660547 0.002122
vt 0.428420 0.728896
vt 0.381348 0.446262
vt 0.285446 0.449088
vn 0.9139 -0.4060 -0.0000
vn 0.0000 -1.0000 0.0000
vn -0.9139 -0.4060 0.0000
vn -0.0000 1.0000 -0.0000
vn 0.0000 -0.8919 -0.4522
vn 0.0000 -0.7986 0.6018
vn 1.0000 0.0000 -0.0000
vn -0.0000 -0.0000 -1.0000
vn -1.0000 0.0000 0.0000
vn 0.0000 0.0000 1.0000
vn 0.0000 -0.6739 0.7388
vn 0.0000 0.9766 -0.2149
vn 0.0000 -0.9993 -0.0378
vn -0.0000 0.7402 -0.6724
vn -0.9714 0.0000 -0.2373
vn 0.9714 0.0000 -0.2373
s off
f 29/1/1 25/2/1 27/3/1
f 32/4/2 33/5/2 26/6/2
f 34/7/3 39/8/3 37/9/3
f 40/10/4 28/11/4 38/12/4
f 7/13/5 1/14/5 3/15/5
f 4/16/6 6/17/6 8/18/6
f 45/19/1 41/20/1 43/21/1
f 48/22/2 49/23/2 42/24/2
f 50/25/3 55/26/3 53/27/3
f 56/28/4 44/29/4 54/30/4
f 15/31/5 9/32/5 11/33/5
f 12/34/6 14/35/6 16/36/6
f 59/37/7 63/38/7 57/39/7
f 64/40/8 65/41/8 58/42/8
f 68/43/9 69/44/9 66/45/9
f 72/46/10 60/47/10 70/48/10
f 19/49/4 21/50/4 17/51/4
f 20/52/2 22/53/2 24/54/2
f 99/55/9 103/56/9 97/57/9
f 104/58/8 105/59/8 98/60/8
f 108/61/7 109/62/7 106/63/7
f 112/64/11 100/65/11 110/66/11
f 79/67/2 73/68/2 75/69/2
f 76/70/12 78/71/12 80/72/12
f 115/73/9 119/74/9 113/75/9
f 120/76/8 121/77/8 114/78/8
f 124/79/7 125/80/7 122/81/7
f 128/82/10 116/83/10 126/84/10
f 83/85/13 85/86/13 81/87/13
f 84/88/14 86/89/14 88/90/14
f 133/91/15 129/92/15 131/93/15
f 136/94/8 137/95/8 130/96/8
f 140/97/16 141/98/16 138/99/16
f 144/100/10 132/101/10 142/102/10
f 91/103/2 93/104/2 89/105/2
f 92/106/4 94/107/4 96/108/4
f 29/1/1 31/109/1 25/2/1
f 32/4/2 35/110/2 33/5/2
f 34/7/3 36/111/3 39/8/3
f 40/10/4 30/112/4 28/11/4
f 7/13/5 5/113/5 1/14/5
f 4/16/6 2/114/6 6/17/6
f 45/19/1 47/115/1 41/20/1
f 48/22/2 51/116/2 49/23/2
f 50/25/3 52/117/3 55/26/3
f 56/28/4 46/118/4 44/29/4
f 15/31/5 13/119/5 9/32/5
f 12/34/6 10/120/6 14/35/6
f 59/37/7 61/121/7 63/38/7
f 64/40/8 67/122/8 65/41/8
f 68/43/9 71/123/9 69/44/9
f 72/46/10 62/124/10 60/47/10
f 19/49/4 23/125/4 21/50/4
f 20/52/2 18/126/2 22/53/2
f 99/55/9 101/127/9 103/56/9
f 104/58/8 107/128/8 105/59/8
f 108/61/7 111/129/7 109/62/7
f 112/64/11 102/130/11 100/65/11
f 79/67/2 77/131/2 73/68/2
f 76/70/12 74/132/12 78/71/12
f 115/73/9 117/133/9 119/74/9
f 120/76/8 123/134/8 121/77/8
f 124/79/7 127/135/7 125/80/7
f 128/82/10 118/136/10 116/83/10
f 83/85/13 87/137/13 85/86/13
f 84/88/14 82/138/14 86/89/14
f 133/91/15 135/139/15 129/92/15
f 136/94/8 139/140/8 137/95/8
f 140/97/16 143/141/16 141/98/16
f 144/100/10 134/142/10 132/101/10
f 91/103/2 95/143/2 93/104/2
f 92/106/4 90/144/4 94/107/4
