# Blender v2.79 (sub 0) OBJ File: 'TRUBBLESternDriveSave.blend'
# www.blender.org
o Cube.004
v -0.368858 0.622165 -1.768612
v -0.368858 0.910516 -1.505564
v -0.368858 0.622165 -2.376124
v -0.368858 0.718913 -2.376124
v 0.368867 0.622165 -1.768612
v 0.368867 0.910516 -1.505564
v 0.368867 0.622165 -2.376124
v 0.368867 0.718913 -2.376124
v -0.404809 0.579471 -1.224817
v -0.404809 1.320186 -1.224817
v -0.404809 0.605582 -1.915108
v -0.404809 0.693073 -1.915108
v 0.404819 0.579471 -1.224817
v 0.404819 1.320186 -1.224817
v 0.404819 0.605582 -1.915108
v 0.404819 0.693073 -1.915108
v -2.484553 0.477757 -2.611510
v -2.484553 0.477757 1.058951
v -2.365127 0.746565 -2.081298
v -2.365127 0.746565 0.702258
v -2.015438 0.477757 -2.611510
v -2.015438 0.477757 1.058951
v -2.134864 0.746565 -2.081298
v -2.134864 0.746565 0.702258
v 2.015447 0.477757 -2.611510
v 2.015447 0.477757 1.058951
v 2.134873 0.746565 -2.081298
v 2.134873 0.746565 0.702258
v 2.484562 0.477757 -2.611510
v 2.484562 0.477757 1.058951
v 2.365135 0.746565 -2.081298
v 2.365135 0.746565 0.702258
v -2.366443 0.584728 -0.515461
v -2.366443 0.724291 -0.515461
v -2.366443 0.584728 -0.948003
v -2.366443 0.724291 -0.948003
v 2.366452 0.584728 -0.515461
v 2.366452 0.724291 -0.515461
v 2.366452 0.584728 -0.948003
v 2.366452 0.724291 -0.948003
v -1.209857 0.566274 1.753147
v -1.209857 1.124839 1.753147
v -0.427508 0.566274 -1.448926
v -0.427508 1.124839 -1.448926
v 1.209756 0.566274 1.753147
v 1.209756 1.124839 1.753147
v 0.427518 0.566274 -1.448926
v 0.427518 1.124839 -1.448926
v -0.368858 0.622165 -2.376124
v -0.368858 0.622165 -2.376124
v -0.368858 0.622165 -1.768612
v -0.368858 0.622165 -1.768612
v -0.368858 0.910516 -1.505564
v -0.368858 0.910516 -1.505564
v -0.368858 0.718913 -2.376124
v -0.368858 0.718913 -2.376124
v 0.368867 0.622165 -2.376124
v 0.368867 0.622165 -2.376124
v 0.368867 0.718913 -2.376124
v 0.368867 0.718913 -2.376124
v 0.368867 0.622165 -1.768612
v 0.368867 0.622165 -1.768612
v 0.368867 0.910516 -1.505564
v 0.368867 0.910516 -1.505564
v -0.404809 0.605582 -1.915108
v -0.404809 0.605582 -1.915108
v -0.404809 0.579471 -1.224817
v -0.404809 0.579471 -1.224817
v -0.404809 1.320186 -1.224817
v -0.404809 1.320186 -1.224817
v -0.404809 0.693073 -1.915108
v -0.404809 0.693073 -1.915108
v 0.404819 0.605582 -1.915108
v 0.404819 0.605582 -1.915108
v 0.404819 0.693073 -1.915108
v 0.404819 0.693073 -1.915108
v 0.404819 0.579471 -1.224817
v 0.404819 0.579471 -1.224817
v 0.404819 1.320186 -1.224817
v 0.404819 1.320186 -1.224817
v -2.365127 0.746565 -2.081298
v -2.365127 0.746565 -2.081298
v -2.484553 0.477757 -2.611510
v -2.484553 0.477757 -2.611510
v -2.484553 0.477757 1.058951
v -2.484553 0.477757 1.058951
v -2.365127 0.746565 0.702258
v -2.365127 0.746565 0.702258
v -2.134864 0.746565 -2.081298
v -2.134864 0.746565 -2.081298
v -2.134864 0.746565 0.702258
v -2.134864 0.746565 0.702258
v -2.015438 0.477757 -2.611510
v -2.015438 0.477757 -2.611510
v -2.015438 0.477757 1.058951
v -2.015438 0.477757 1.058951
v 2.134873 0.746565 -2.081298
v 2.134873 0.746565 -2.081298
v 2.015447 0.477757 -2.611510
v 2.015447 0.477757 -2.611510
v 2.015447 0.477757 1.058951
v 2.015447 0.477757 1.058951
v 2.134873 0.746565 0.702258
v 2.134873 0.746565 0.702258
v 2.365135 0.746565 -2.081298
v 2.365135 0.746565 -2.081298
v 2.365135 0.746565 0.702258
v 2.365135 0.746565 0.702258
v 2.484562 0.477757 -2.611510
v 2.484562 0.477757 -2.611510
v 2.484562 0.477757 1.058951
v 2.484562 0.477757 1.058951
v -2.366443 0.584728 -0.948003
v -2.366443 0.584728 -0.948003
v -2.366443 0.584728 -0.515461
v -2.366443 0.584728 -0.515461
v -2.366443 0.724291 -0.515461
v -2.366443 0.724291 -0.515461
v -2.366443 0.724291 -0.948003
v -2.366443 0.724291 -0.948003
v 2.366452 0.584728 -0.948003
v 2.366452 0.584728 -0.948003
v 2.366452 0.724291 -0.948003
v 2.366452 0.724291 -0.948003
v 2.366452 0.584728 -0.515461
v 2.366452 0.584728 -0.515461
v 2.366452 0.724291 -0.515461
v 2.366452 0.724291 -0.515461
v -0.427508 0.566274 -1.448926
v -0.427508 0.566274 -1.448926
v -1.209857 0.566274 1.753147
v -1.209857 0.566274 1.753147
v -1.209857 1.124839 1.753147
v -1.209857 1.124839 1.753147
v -0.427508 1.124839 -1.448926
v -0.427508 1.124839 -1.448926
v 0.427518 0.566274 -1.448926
v 0.427518 0.566274 -1.448926
v 0.427518 1.124839 -1.448926
v 0.427518 1.124839 -1.448926
v 1.209756 0.566274 1.753147
v 1.209756 0.566274 1.753147
v 1.209756 1.124839 1.753147
v 1.209756 1.124839 1.753147
vt 0.240853 0.681816
vt 0.272745 0.765638
vt 0.259356 0.768697
vt 0.564022 0.462699
vt 0.550212 0.551679
vt 0.550212 0.462699
vt 0.240853 0.638141
vt 0.208960 0.721962
vt 0.227464 0.635082
vt 0.708498 0.473570
vt 0.667336 0.562550
vt 0.667336 0.473570
vt 0.667336 0.682449
vt 0.754055 0.771430
vt 0.667336 0.771430
vt 0.086720 0.468989
vt 0.000000 0.599368
vt 0.000000 0.468989
vt 0.667336 0.581322
vt 0.568855 0.597452
vt 0.568855 0.584725
vt 0.550212 0.649332
vt 0.562701 0.551679
vt 0.562701 0.649332
vt 0.568855 0.565193
vt 0.667336 0.581322
vt 0.568855 0.577920
vt 0.000000 0.599368
vt 0.095173 0.707859
vt 0.000000 0.707859
vt 0.762509 0.581322
vt 0.667336 0.682449
vt 0.667336 0.581322
vt 0.086720 0.583739
vt 0.181893 0.468989
vt 0.181893 0.583739
vt 0.403907 0.462699
vt 0.443653 0.922710
vt 0.403907 1.000000
vt 0.523144 0.462699
vt 0.550211 0.864922
vt 0.523144 0.864922
vt 0.523144 0.539989
vt 0.483398 1.000000
vt 0.483398 0.462699
vt 0.905011 0.537591
vt 0.849866 0.000000
vt 0.905011 0.000000
vt 0.250067 0.468989
vt 0.208960 0.552035
vt 0.222999 0.468989
vt 0.612821 0.731252
vt 0.568855 0.689075
vt 0.612821 0.703479
vt 0.443653 0.462699
vt 0.483398 0.922710
vt 0.443653 1.000000
vt 0.181893 0.468989
vt 0.208960 0.871212
vt 0.181893 0.871212
vt 0.364161 0.922710
vt 0.403907 0.462699
vt 0.403907 1.000000
vt 0.960156 0.537591
vt 0.905011 0.000000
vt 0.960156 0.000000
vt 0.250067 0.552035
vt 0.208960 0.635082
vt 0.222999 0.552035
vt 0.146125 0.729045
vt 0.102160 0.686868
vt 0.146125 0.701272
vt 0.264105 0.595783
vt 0.283892 0.532386
vt 0.283892 0.595704
vt 0.960156 0.570856
vt 0.980078 0.000000
vt 0.980078 0.570856
vt 0.283892 0.469068
vt 0.264105 0.532306
vt 0.264105 0.468989
vt 1.000000 0.000000
vt 0.980078 0.570856
vt 0.980078 0.000000
vt 0.727208 0.000000
vt 0.788951 0.570856
vt 0.727208 0.570856
vt 0.849866 0.570856
vt 0.788951 0.000000
vt 0.849865 0.000000
vt 0.648032 0.001574
vt 0.568855 0.471996
vt 0.568855 0.000000
vt 0.102160 0.686868
vt 0.181893 0.583739
vt 0.181893 0.686868
vt 0.648032 0.473569
vt 0.727208 0.000000
vt 0.727208 0.471995
vt 0.364161 0.462699
vt 0.284428 0.754539
vt 0.284428 0.462699
vt 0.192462 0.468989
vt 0.000000 0.000000
vt 0.284428 0.000000
vt 0.376394 0.462699
vt 0.568855 0.000000
vt 0.476903 0.462699
vt 0.272745 0.635082
vt 0.564022 0.551679
vt 0.240853 0.768697
vt 0.708498 0.562550
vt 0.754055 0.682449
vt 0.086720 0.599368
vt 0.667336 0.689075
vt 0.550212 0.551679
vt 0.667336 0.473570
vt 0.095173 0.599368
vt 0.762509 0.682449
vt 0.086720 0.468989
vt 0.443653 0.515238
vt 0.550212 0.462699
vt 0.523144 0.947461
vt 0.849866 0.537591
vt 0.264105 0.552035
vt 0.568855 0.745657
vt 0.483398 0.515238
vt 0.208960 0.468989
vt 0.364161 0.515238
vt 0.905011 0.537591
vt 0.264105 0.635082
vt 0.102160 0.743450
vt 0.264105 0.532466
vt 0.960156 0.000000
vt 0.283892 0.532386
vt 1.000000 0.570856
vt 0.788951 0.000000
vt 0.788951 0.570856
vt 0.648032 0.473570
vt 0.102160 0.583739
vt 0.648032 0.001574
vt 0.364161 0.754539
vt 0.091953 0.468989
vt 0.284428 0.000000
vn -1.0000 0.0000 0.0000
vn 0.0000 0.0000 -1.0000
vn 1.0000 0.0000 0.0000
vn 0.0000 -0.6739 0.7388
vn 0.0000 -1.0000 0.0000
vn 0.0000 0.9766 -0.2149
vn 0.0000 0.0000 1.0000
vn 0.0000 -0.9993 -0.0378
vn 0.0000 0.7402 -0.6724
vn -0.9139 0.4060 0.0000
vn 0.0000 1.0000 0.0000
vn 0.9139 0.4060 0.0000
vn 0.0000 0.8919 -0.4522
vn 0.0000 0.7986 0.6018
vn -0.9714 0.0000 -0.2373
vn 0.9714 0.0000 -0.2373
s off
f 51/1/1 55/2/1 49/3/1
f 56/4/2 57/5/2 50/6/2
f 60/7/3 61/8/3 58/9/3
f 64/10/4 52/11/4 62/12/4
f 7/13/5 1/14/5 3/15/5
f 4/16/6 6/17/6 8/18/6
f 67/19/1 71/20/1 65/21/1
f 72/22/2 73/23/2 66/24/2
f 76/25/3 77/26/3 74/27/3
f 80/28/7 68/29/7 78/30/7
f 15/31/8 9/32/8 11/33/8
f 12/34/9 14/35/9 16/36/9
f 85/37/10 81/38/10 83/39/10
f 88/40/11 89/41/11 82/42/11
f 90/43/12 95/44/12 93/45/12
f 96/46/5 84/47/5 94/48/5
f 23/49/13 17/50/13 19/51/13
f 20/52/14 22/53/14 24/54/14
f 101/55/10 97/56/10 99/57/10
f 104/58/11 105/59/11 98/60/11
f 106/61/12 111/62/12 109/63/12
f 112/64/5 100/65/5 110/66/5
f 31/67/13 25/68/13 27/69/13
f 28/70/14 30/71/14 32/72/14
f 117/73/1 113/74/1 115/75/1
f 120/76/2 121/77/2 114/78/2
f 124/79/3 125/80/3 122/81/3
f 128/82/7 116/83/7 126/84/7
f 39/85/5 33/86/5 35/87/5
f 36/88/11 38/89/11 40/90/11
f 133/91/15 129/92/15 131/93/15
f 136/94/2 137/95/2 130/96/2
f 140/97/16 141/98/16 138/99/16
f 144/100/7 132/101/7 142/102/7
f 43/103/5 45/104/5 41/105/5
f 44/106/11 46/107/11 48/108/11
f 51/1/1 53/109/1 55/2/1
f 56/4/2 59/110/2 57/5/2
f 60/7/3 63/111/3 61/8/3
f 64/10/4 54/112/4 52/11/4
f 7/13/5 5/113/5 1/14/5
f 4/16/6 2/114/6 6/17/6
f 67/19/1 69/115/1 71/20/1
f 72/22/2 75/116/2 73/23/2
f 76/25/3 79/117/3 77/26/3
f 80/28/7 70/118/7 68/29/7
f 15/31/8 13/119/8 9/32/8
f 12/34/9 10/120/9 14/35/9
f 85/37/10 87/121/10 81/38/10
f 88/40/11 91/122/11 89/41/11
f 90/43/12 92/123/12 95/44/12
f 96/46/5 86/124/5 84/47/5
f 23/49/13 21/125/13 17/50/13
f 20/52/14 18/126/14 22/53/14
f 101/55/10 103/127/10 97/56/10
f 104/58/11 107/128/11 105/59/11
f 106/61/12 108/129/12 111/62/12
f 112/64/5 102/130/5 100/65/5
f 31/67/13 29/131/13 25/68/13
f 28/70/14 26/132/14 30/71/14
f 117/73/1 119/133/1 113/74/1
f 120/76/2 123/134/2 121/77/2
f 124/79/3 127/135/3 125/80/3
f 128/82/7 118/136/7 116/83/7
f 39/85/5 37/137/5 33/86/5
f 36/88/11 34/138/11 38/89/11
f 133/91/15 135/139/15 129/92/15
f 136/94/2 139/140/2 137/95/2
f 140/97/16 143/141/16 141/98/16
f 144/100/7 134/142/7 132/101/7
f 43/103/5 47/143/5 45/104/5
f 44/106/11 42/144/11 46/107/11
